<svg width="20" height="20" viewBox="0 0 20 20" fill="none" xmlns="http://www.w3.org/2000/svg">
<path d="M9.16674 7.74967C7.99176 7.39936 6.73627 7.42819 5.57861 7.83206C4.42094 8.23593 3.41997 8.9943 2.71786 9.99946C2.01576 11.0046 1.64822 12.2055 1.66747 13.4314C1.68671 14.6573 2.09175 15.846 2.82506 16.8287C3.55836 17.8113 4.58264 18.5379 5.75241 18.9052C6.92218 19.2726 8.17796 19.262 9.34137 18.875C10.5048 18.4879 11.5167 17.7442 12.2333 16.7493C12.9499 15.7545 13.3348 14.5591 13.3334 13.333V7.49967C14.4445 8.61079 16.1112 9.16634 18.3334 9.16634V4.99967C16.1112 4.99967 14.4445 3.61079 13.3334 0.833008H9.16674V13.333M9.16674 13.333C9.16674 13.0034 9.069 12.6811 8.88586 12.4071C8.70272 12.133 8.44243 11.9194 8.13788 11.7932C7.83334 11.6671 7.49823 11.6341 7.17493 11.6984C6.85163 11.7627 6.55465 11.9214 6.32157 12.1545C6.08848 12.3876 5.92974 12.6846 5.86544 13.0079C5.80113 13.3312 5.83413 13.6663 5.96028 13.9708C6.08642 14.2754 6.30005 14.5357 6.57413 14.7188C6.84821 14.9019 7.17044 14.9997 7.50008 14.9997C7.94211 14.9997 8.36603 14.8241 8.67859 14.5115C8.99115 14.199 9.16674 13.775 9.16674 13.333Z" stroke="#6B7280" stroke-width="1.5" stroke-linecap="round" stroke-linejoin="round"/>
</svg>
