<svg width="20" height="20" viewBox="0 0 20 20" fill="none" xmlns="http://www.w3.org/2000/svg">
<path d="M14.917 0C17.6321 0.000175739 19.8328 2.20185 19.833 4.91699V14.917C19.8328 17.6321 17.6321 19.8328 14.917 19.833H4.91699C2.20185 19.8328 0.000175737 17.6321 0 14.917V4.91699C0.000175913 2.20185 2.20185 0.000175915 4.91699 0H14.917ZM4.91699 1.5C3.03028 1.50018 1.50018 3.03028 1.5 4.91699V14.917C1.50018 16.8037 3.03028 18.3328 4.91699 18.333H14.917C16.8037 18.3328 18.3328 16.8037 18.333 14.917V4.91699C18.3328 3.03028 16.8037 1.50018 14.917 1.5H4.91699ZM13.3867 6.72168C13.5406 6.33734 13.9779 6.15018 14.3623 6.30371C14.7466 6.45766 14.9329 6.89392 14.7793 7.27832C14.329 8.40418 13.567 9.27986 12.5342 9.91602C13.5671 10.5521 14.3288 11.4289 14.7793 12.5547C14.9331 12.9391 14.7466 13.3753 14.3623 13.5293C13.9779 13.683 13.5406 13.4966 13.3867 13.1123C12.9437 12.005 12.0735 11.1871 10.667 10.6826V12.833C10.667 13.0744 10.5505 13.3015 10.3545 13.4424C10.1585 13.5833 9.90654 13.6209 9.67773 13.5439C8.38883 13.1106 7.26152 12.248 6.43359 11.0889C5.60642 9.93059 5.1108 8.52426 5.00195 7.05566C4.97156 6.64291 5.28164 6.28282 5.69434 6.25195C6.10722 6.22136 6.46714 6.53155 6.49805 6.94434C6.58761 8.15319 6.99483 9.29437 7.6543 10.2178C8.07928 10.8127 8.59552 11.2961 9.16699 11.6523V7C9.16717 6.58604 9.50304 6.25018 9.91699 6.25C10.3309 6.25018 10.6668 6.58604 10.667 7V9.14941C12.0733 8.64489 12.9437 7.82895 13.3867 6.72168Z" fill="#6B7280"/>
</svg>
