<svg width="81" height="40" viewBox="0 0 81 40" fill="none" xmlns="http://www.w3.org/2000/svg">
<path d="M2.78324 31.923C1.237 31.923 0 30.6867 0 29.1413V18.4012C0 16.7399 0.50253 15.3491 1.54625 14.2673C2.55131 13.1856 3.90427 12.6833 5.52783 12.6833C7.46064 12.6833 8.92957 13.5719 9.97329 15.3491C10.5918 14.3832 11.2876 13.7265 12.0221 13.3015C12.7565 12.8765 13.6456 12.6833 14.728 12.6833C16.4289 12.6833 17.7045 13.2242 18.6323 14.2673C19.5214 15.3491 19.9852 16.8558 19.9852 18.8648V29.1413C19.9852 30.6867 18.7482 31.923 17.202 31.923C15.6557 31.923 14.4187 30.6867 14.4187 29.1413V19.7147C14.4187 19.0966 14.3801 18.7102 14.2641 18.517C14.1868 18.3239 13.9549 18.208 13.6843 18.208C13.1431 18.208 12.8725 18.6716 12.8725 19.5988V29.1413C12.8725 30.6867 11.6355 31.923 10.0893 31.923C8.54301 31.923 7.30601 30.6867 7.30601 29.1413V19.7147C7.30601 19.1352 7.26736 18.7102 7.15139 18.517C7.03542 18.3239 6.84214 18.208 6.57155 18.208C6.03036 18.208 5.75977 18.7102 5.75977 19.7147V29.1413C5.56649 30.6867 4.32949 31.923 2.78324 31.923Z" fill="#FF6792"/>
<path d="M35.4479 15.465V29.1413C35.4479 30.2231 34.868 31.1117 33.9789 31.6139C33.5924 31.8071 33.1285 31.9616 32.626 31.9616C32.0848 31.9616 31.5436 31.8071 31.1184 31.5366C30.3066 31.8457 29.3788 31.9616 28.3738 31.9616C26.2477 31.9616 24.6241 31.3435 23.5031 30.1072C22.3821 28.8709 21.8022 27.0551 21.8022 24.7371V15.465C21.8022 13.9196 23.0392 12.6833 24.5855 12.6833C25.3586 12.6833 26.0544 12.9924 26.5569 13.4947C27.0595 13.9969 27.3687 14.6923 27.3687 15.465V24.6598C27.3687 25.8188 27.7553 26.3983 28.6057 26.3983C29.3788 26.3983 29.8041 25.8188 29.8041 24.6598V15.465C29.8041 14.6923 30.1133 13.9969 30.6158 13.4947C31.1184 12.9924 31.8142 12.6833 32.5873 12.6833C32.6646 12.6833 32.7806 12.6833 32.8579 12.6833C32.8966 12.6833 32.8966 12.6833 32.9352 12.6833C33.0125 12.6833 33.0512 12.6833 33.1285 12.722C33.1671 12.722 33.1672 12.722 33.2058 12.722C33.3604 12.7606 33.5151 12.7993 33.6697 12.8765C33.8243 12.9538 33.9789 13.0311 34.1336 13.1083C34.2109 13.147 34.3268 13.2242 34.4041 13.3015C34.4428 13.3401 34.4815 13.3401 34.4815 13.3788C34.5201 13.4174 34.5588 13.456 34.5974 13.4947C35.1386 13.9969 35.4479 14.6923 35.4479 15.465Z" fill="#FF6792"/>
<path d="M50.9487 15.4648V29.1412C50.9487 30.6865 49.7117 31.9228 48.1654 31.9228C47.6243 31.9228 47.0831 31.7683 46.6578 31.4978C46.4646 31.3819 46.3099 31.266 46.194 31.1115C45.6914 30.6092 45.3822 29.9138 45.3822 29.1412V25.1232H42.9855V29.1798C42.9855 30.2615 42.4057 31.1501 41.5166 31.6524C41.13 31.8455 40.6661 32.0001 40.1636 32.0001C38.6174 32.0001 37.3804 30.7638 37.3804 29.2184V15.4648C37.3804 13.9194 38.6174 12.6832 40.1636 12.6832C40.7048 12.6832 41.246 12.8377 41.6712 13.1081C41.8645 13.224 42.0191 13.3399 42.1351 13.4945C42.6376 13.9967 42.9469 14.6921 42.9469 15.4648V19.5213H45.3435V15.4648C45.3435 14.3831 45.9234 13.4945 46.8125 12.9922C47.199 12.7991 47.6629 12.6445 48.1654 12.6445C49.7117 12.6832 50.9487 13.9194 50.9487 15.4648Z" fill="#FF6792"/>
<path d="M70.5477 12.6833C73.2149 12.6833 75.4957 13.6106 77.3898 15.5036C79.284 17.3967 80.2504 19.6374 80.2504 22.2645C80.2504 24.9303 79.284 27.2097 77.3898 29.0641C75.457 30.9185 73.1376 31.8843 70.393 31.8843C67.6485 31.8843 65.3291 30.9571 63.3963 29.0641C61.4635 27.171 60.4971 24.9303 60.4971 22.2645C60.4971 19.5988 61.4635 17.3194 63.3963 15.465C65.3291 13.6106 67.7258 12.6833 70.5477 12.6833ZM70.3544 18.0534C69.1947 18.0534 68.2283 18.4784 67.4165 19.2897C66.6047 20.101 66.2182 21.1055 66.2182 22.2645C66.2182 23.4235 66.6434 24.428 67.4552 25.2393C68.267 26.0506 69.2334 26.4756 70.393 26.4756C71.5527 26.4756 72.5191 26.0506 73.3309 25.2393C74.1427 24.428 74.5293 23.4235 74.5293 22.2645C74.5293 21.1055 74.1427 20.101 73.3309 19.2897C72.5191 18.4784 71.5141 18.0534 70.3544 18.0534Z" fill="#FF6792"/>
<path d="M67.1459 8.85834C65.5996 10.3264 63.7441 11.1764 61.8113 11.949C60.7289 12.374 59.6466 12.8376 58.5255 13.2626V28.7161C58.5255 30.4933 57.2885 31.9227 55.7423 31.9227C55.2011 31.9227 54.6599 31.7295 54.2347 31.4205C54.0414 31.3046 53.8868 31.15 53.7708 30.9955C53.2683 30.416 52.9591 29.6047 52.9591 28.7161V18.1304C52.9591 18.0532 52.9591 17.9759 52.9591 17.8986V12.9922C51.1809 12.374 49.48 11.6013 48.0884 10.2878C46.7354 9.05151 45.653 7.66069 45.3824 5.76764C45.0732 3.64278 45.885 1.98153 47.7791 0.938413C50.5624 -0.606938 54.0028 0.281638 55.433 2.94737C55.7036 3.44961 55.8969 3.95185 56.0902 4.45409C56.1675 4.64726 56.2835 4.80179 56.3994 5.03359C56.5541 4.84043 56.6314 4.72452 56.7087 4.56999C58.8348 1.17022 61.9273 -0.297869 65.9089 0.0498349C67.6484 0.20437 69.1946 1.94289 69.3493 3.68141C69.5039 5.80627 68.6148 7.46752 67.1459 8.85834Z" fill="#9CE7C8"/>
</svg>
